<?xml version="1.0" standalone="no"?>
<!DOCTYPE svg PUBLIC "-//W3C//DTD SVG 20010904//EN"
 "http://www.w3.org/TR/2001/REC-SVG-20010904/DTD/svg10.dtd">
<svg version="1.0" xmlns="http://www.w3.org/2000/svg"
 width="260.000000pt" height="260.000000pt" viewBox="0 0 260.000000 260.000000"
 preserveAspectRatio="xMidYMid meet">
<metadata>
Created by potrace 1.11, written by Peter Selinger 2001-2013
</metadata>
<g transform="translate(0.000000,260.000000) scale(0.100000,-0.100000)"
fill="#000000" stroke="none">
<path d="M0 1300 l0 -1300 1300 0 1300 0 0 1300 0 1300 -1300 0 -1300 0 0
-1300z m1665 1041 c206 -59 358 -187 435 -366 48 -113 65 -329 35 -470 -33
-156 -135 -304 -274 -393 -145 -94 -275 -122 -578 -122 l-223 0 0 -375 0 -375
-260 0 -260 0 0 1065 0 1066 523 -3 c509 -4 524 -4 602 -27z"/>
<path d="M1060 1680 l0 -282 178 4 c151 4 185 8 234 27 103 40 150 116 151
246 1 138 -55 226 -170 262 -31 9 -111 17 -220 20 l-173 6 0 -283z"/>
</g>
</svg>
